<mxfile host="65bd71144e">
    <diagram id="dDReRiz-KOIEiKNsoQ1I" name="DIAGRAMAS DE CLASES">
        <mxGraphModel dx="402" dy="491" grid="1" gridSize="10" guides="1" tooltips="1" connect="1" arrows="1" fold="1" page="1" pageScale="1" pageWidth="827" pageHeight="1169" math="0" shadow="0">
            <root>
                <mxCell id="0"/>
                <mxCell id="1" parent="0"/>
                <mxCell id="2" value="DIAGRAMA DE CLASES" style="text;html=1;align=center;verticalAlign=middle;resizable=0;points=[];autosize=1;strokeColor=none;fillColor=none;" parent="1" vertex="1">
                    <mxGeometry x="30" y="140" width="150" height="30" as="geometry"/>
                </mxCell>
                <mxCell id="3" value="" style="endArrow=classic;html=1;exitX=1.02;exitY=0.5;exitDx=0;exitDy=0;exitPerimeter=0;" parent="1" source="2" edge="1">
                    <mxGeometry width="50" height="50" relative="1" as="geometry">
                        <mxPoint x="230" y="200" as="sourcePoint"/>
                        <mxPoint x="270" y="155" as="targetPoint"/>
                    </mxGeometry>
                </mxCell>
                <mxCell id="4" value="SE REPRESENTARA POR UN RECTANGULO Y 3 COMPORTAMIENTOS" style="text;html=1;align=center;verticalAlign=middle;resizable=0;points=[];autosize=1;strokeColor=none;fillColor=none;" parent="1" vertex="1">
                    <mxGeometry x="290" y="140" width="410" height="30" as="geometry"/>
                </mxCell>
                <mxCell id="5" value="NOMBRE" style="swimlane;fontStyle=1;align=center;verticalAlign=top;childLayout=stackLayout;horizontal=1;startSize=26;horizontalStack=0;resizeParent=1;resizeParentMax=0;resizeLast=0;collapsible=1;marginBottom=0;" parent="1" vertex="1">
                    <mxGeometry x="60" y="240" width="160" height="86" as="geometry"/>
                </mxCell>
                <mxCell id="6" value="ATRIBUTOS" style="text;strokeColor=none;fillColor=none;align=left;verticalAlign=top;spacingLeft=4;spacingRight=4;overflow=hidden;rotatable=0;points=[[0,0.5],[1,0.5]];portConstraint=eastwest;" parent="5" vertex="1">
                    <mxGeometry y="26" width="160" height="26" as="geometry"/>
                </mxCell>
                <mxCell id="7" value="" style="line;strokeWidth=1;fillColor=none;align=left;verticalAlign=middle;spacingTop=-1;spacingLeft=3;spacingRight=3;rotatable=0;labelPosition=right;points=[];portConstraint=eastwest;strokeColor=inherit;" parent="5" vertex="1">
                    <mxGeometry y="52" width="160" height="8" as="geometry"/>
                </mxCell>
                <mxCell id="8" value="OPERACIONES" style="text;strokeColor=none;fillColor=none;align=left;verticalAlign=top;spacingLeft=4;spacingRight=4;overflow=hidden;rotatable=0;points=[[0,0.5],[1,0.5]];portConstraint=eastwest;" parent="5" vertex="1">
                    <mxGeometry y="60" width="160" height="26" as="geometry"/>
                </mxCell>
                <mxCell id="9" value="DEPARTAMENTO" style="swimlane;fontStyle=0;childLayout=stackLayout;horizontal=1;startSize=26;fillColor=none;horizontalStack=0;resizeParent=1;resizeParentMax=0;resizeLast=0;collapsible=1;marginBottom=0;" parent="1" vertex="1">
                    <mxGeometry x="250" y="228" width="210" height="130" as="geometry"/>
                </mxCell>
                <mxCell id="10" value="+ NOMBRE&#10;+CATEGORIA" style="text;strokeColor=none;fillColor=none;align=left;verticalAlign=top;spacingLeft=4;spacingRight=4;overflow=hidden;rotatable=0;points=[[0,0.5],[1,0.5]];portConstraint=eastwest;" parent="9" vertex="1">
                    <mxGeometry y="26" width="210" height="44" as="geometry"/>
                </mxCell>
                <mxCell id="11" value="+AGREGAR ()&#10;+ELIMINAR ()&#10;+MODIFICAR ()" style="text;strokeColor=none;fillColor=none;align=left;verticalAlign=top;spacingLeft=4;spacingRight=4;overflow=hidden;rotatable=0;points=[[0,0.5],[1,0.5]];portConstraint=eastwest;" parent="9" vertex="1">
                    <mxGeometry y="70" width="210" height="60" as="geometry"/>
                </mxCell>
                <mxCell id="13" value="AUTOMOVIL" style="swimlane;fontStyle=0;childLayout=stackLayout;horizontal=1;startSize=26;fillColor=none;horizontalStack=0;resizeParent=1;resizeParentMax=0;resizeLast=0;collapsible=1;marginBottom=0;" parent="1" vertex="1">
                    <mxGeometry x="500" y="228" width="210" height="210" as="geometry"/>
                </mxCell>
                <mxCell id="14" value="+ MODELO&#10;+MARCA&#10;+COLOR&#10;+CATEGORIA" style="text;strokeColor=none;fillColor=none;align=left;verticalAlign=top;spacingLeft=4;spacingRight=4;overflow=hidden;rotatable=0;points=[[0,0.5],[1,0.5]];portConstraint=eastwest;" parent="13" vertex="1">
                    <mxGeometry y="26" width="210" height="84" as="geometry"/>
                </mxCell>
                <mxCell id="15" value="+ACELERAR ()&#10;+FRENAR ()&#10;+REVERSA ()&#10;+IZQUIERDA ()&#10;+DERECHA ()" style="text;strokeColor=none;fillColor=none;align=left;verticalAlign=top;spacingLeft=4;spacingRight=4;overflow=hidden;rotatable=0;points=[[0,0.5],[1,0.5]];portConstraint=eastwest;" parent="13" vertex="1">
                    <mxGeometry y="110" width="210" height="100" as="geometry"/>
                </mxCell>
                <mxCell id="21" value="" style="edgeStyle=none;html=1;" parent="1" target="17" edge="1">
                    <mxGeometry relative="1" as="geometry">
                        <mxPoint x="190" y="415" as="sourcePoint"/>
                    </mxGeometry>
                </mxCell>
                <mxCell id="22" value="" style="edgeStyle=none;html=1;" parent="1" source="16" target="18" edge="1">
                    <mxGeometry relative="1" as="geometry"/>
                </mxCell>
                <mxCell id="16" value="ENCAPSULACION" style="text;html=1;strokeColor=#3700CC;fillColor=#6a00ff;align=center;verticalAlign=middle;whiteSpace=wrap;rounded=0;fontColor=#ffffff;" parent="1" vertex="1">
                    <mxGeometry x="70" y="400" width="110" height="30" as="geometry"/>
                </mxCell>
                <mxCell id="25" value="" style="edgeStyle=none;html=1;" parent="1" source="17" target="24" edge="1">
                    <mxGeometry relative="1" as="geometry"/>
                </mxCell>
                <mxCell id="17" value="PUBLICA" style="text;html=1;strokeColor=none;fillColor=none;align=center;verticalAlign=middle;whiteSpace=wrap;rounded=0;" parent="1" vertex="1">
                    <mxGeometry x="240" y="400" width="60" height="30" as="geometry"/>
                </mxCell>
                <mxCell id="27" value="" style="edgeStyle=none;html=1;" parent="1" source="18" target="26" edge="1">
                    <mxGeometry relative="1" as="geometry"/>
                </mxCell>
                <mxCell id="18" value="PRIVADA" style="text;html=1;strokeColor=none;fillColor=none;align=center;verticalAlign=middle;whiteSpace=wrap;rounded=0;" parent="1" vertex="1">
                    <mxGeometry x="95" y="550" width="60" height="30" as="geometry"/>
                </mxCell>
                <mxCell id="23" value="Set / Get" style="text;html=1;strokeColor=none;fillColor=none;align=center;verticalAlign=middle;whiteSpace=wrap;rounded=0;" parent="1" vertex="1">
                    <mxGeometry x="150" y="450" width="60" height="30" as="geometry"/>
                </mxCell>
                <mxCell id="24" value="DATOS VISIBLES A OTRAS CLASES" style="text;html=1;strokeColor=none;fillColor=none;align=center;verticalAlign=middle;whiteSpace=wrap;rounded=0;" parent="1" vertex="1">
                    <mxGeometry x="380" y="400" width="100" height="30" as="geometry"/>
                </mxCell>
                <mxCell id="26" value="ATRIBUTO O PROCESO COMPLETAMENTE INVISIBLE&amp;nbsp;" style="text;html=1;strokeColor=none;fillColor=none;align=center;verticalAlign=middle;whiteSpace=wrap;rounded=0;" parent="1" vertex="1">
                    <mxGeometry x="240" y="550" width="190" height="30" as="geometry"/>
                </mxCell>
                <mxCell id="29" style="edgeStyle=none;html=1;entryX=0;entryY=1;entryDx=0;entryDy=0;" parent="1" source="28" target="24" edge="1">
                    <mxGeometry relative="1" as="geometry"/>
                </mxCell>
                <mxCell id="28" value="PROTEGIDO" style="text;html=1;strokeColor=none;fillColor=none;align=center;verticalAlign=middle;whiteSpace=wrap;rounded=0;" parent="1" vertex="1">
                    <mxGeometry x="230" y="480" width="60" height="30" as="geometry"/>
                </mxCell>
                <mxCell id="30" value="Amigas / friends" style="text;html=1;strokeColor=none;fillColor=none;align=center;verticalAlign=middle;whiteSpace=wrap;rounded=0;" parent="1" vertex="1">
                    <mxGeometry x="325" y="460" width="85" height="30" as="geometry"/>
                </mxCell>
            </root>
        </mxGraphModel>
    </diagram>
    <diagram id="ZWfAHNvQdMU1-Fq917bC" name="DIAGRAMAS DE CLASES: ASOCIACION">
        <mxGraphModel dx="685" dy="475" grid="1" gridSize="10" guides="1" tooltips="1" connect="1" arrows="1" fold="1" page="1" pageScale="1" pageWidth="827" pageHeight="1169" math="0" shadow="0">
            <root>
                <mxCell id="0"/>
                <mxCell id="1" parent="0"/>
                <mxCell id="Z3AK5hToKeO39PUw8S9L-24" style="edgeStyle=none;html=1;entryX=-0.014;entryY=0.115;entryDx=0;entryDy=0;entryPerimeter=0;" edge="1" parent="1" source="Z3AK5hToKeO39PUw8S9L-5" target="Z3AK5hToKeO39PUw8S9L-18">
                    <mxGeometry relative="1" as="geometry">
                        <mxPoint x="390" y="200" as="targetPoint"/>
                    </mxGeometry>
                </mxCell>
                <mxCell id="Z3AK5hToKeO39PUw8S9L-29" style="edgeStyle=none;html=1;entryX=-0.014;entryY=0.115;entryDx=0;entryDy=0;entryPerimeter=0;" edge="1" parent="1" source="Z3AK5hToKeO39PUw8S9L-5" target="Z3AK5hToKeO39PUw8S9L-27">
                    <mxGeometry relative="1" as="geometry"/>
                </mxCell>
                <mxCell id="Z3AK5hToKeO39PUw8S9L-5" value="MODULO" style="swimlane;fontStyle=1;align=center;verticalAlign=top;childLayout=stackLayout;horizontal=1;startSize=26;horizontalStack=0;resizeParent=1;resizeParentMax=0;resizeLast=0;collapsible=1;marginBottom=0;" vertex="1" parent="1">
                    <mxGeometry x="80" y="110" width="160" height="180" as="geometry"/>
                </mxCell>
                <mxCell id="Z3AK5hToKeO39PUw8S9L-6" value="+ NombredelModulo&#10;+ Temario&#10;+ Duracion&#10;+IdSemestre" style="text;strokeColor=none;fillColor=none;align=left;verticalAlign=top;spacingLeft=4;spacingRight=4;overflow=hidden;rotatable=0;points=[[0,0.5],[1,0.5]];portConstraint=eastwest;" vertex="1" parent="Z3AK5hToKeO39PUw8S9L-5">
                    <mxGeometry y="26" width="160" height="74" as="geometry"/>
                </mxCell>
                <mxCell id="Z3AK5hToKeO39PUw8S9L-7" value="" style="line;strokeWidth=1;fillColor=none;align=left;verticalAlign=middle;spacingTop=-1;spacingLeft=3;spacingRight=3;rotatable=0;labelPosition=right;points=[];portConstraint=eastwest;strokeColor=inherit;" vertex="1" parent="Z3AK5hToKeO39PUw8S9L-5">
                    <mxGeometry y="100" width="160" height="8" as="geometry"/>
                </mxCell>
                <mxCell id="Z3AK5hToKeO39PUw8S9L-8" value="+ Evaluar ()&#10;+ GenerarActividad ()" style="text;strokeColor=none;fillColor=none;align=left;verticalAlign=top;spacingLeft=4;spacingRight=4;overflow=hidden;rotatable=0;points=[[0,0.5],[1,0.5]];portConstraint=eastwest;" vertex="1" parent="Z3AK5hToKeO39PUw8S9L-5">
                    <mxGeometry y="108" width="160" height="72" as="geometry"/>
                </mxCell>
                <mxCell id="Z3AK5hToKeO39PUw8S9L-9" value="CARDINALIDAD DE ASOCIACION" style="text;html=1;strokeColor=#6F0000;fillColor=#a20025;align=center;verticalAlign=middle;whiteSpace=wrap;rounded=0;fontColor=#ffffff;" vertex="1" parent="1">
                    <mxGeometry x="40" y="320" width="240" height="30" as="geometry"/>
                </mxCell>
                <mxCell id="Z3AK5hToKeO39PUw8S9L-10" value="1" style="text;html=1;strokeColor=none;fillColor=none;align=center;verticalAlign=middle;whiteSpace=wrap;rounded=0;" vertex="1" parent="1">
                    <mxGeometry x="130" y="360" width="60" height="30" as="geometry"/>
                </mxCell>
                <mxCell id="Z3AK5hToKeO39PUw8S9L-11" value="0.1" style="text;html=1;strokeColor=none;fillColor=none;align=center;verticalAlign=middle;whiteSpace=wrap;rounded=0;" vertex="1" parent="1">
                    <mxGeometry x="130" y="390" width="60" height="30" as="geometry"/>
                </mxCell>
                <mxCell id="Z3AK5hToKeO39PUw8S9L-12" value="M.N" style="text;html=1;strokeColor=none;fillColor=none;align=center;verticalAlign=middle;whiteSpace=wrap;rounded=0;" vertex="1" parent="1">
                    <mxGeometry x="130" y="420" width="60" height="30" as="geometry"/>
                </mxCell>
                <mxCell id="Z3AK5hToKeO39PUw8S9L-13" value="&quot;" style="text;html=1;strokeColor=none;fillColor=none;align=center;verticalAlign=middle;whiteSpace=wrap;rounded=0;" vertex="1" parent="1">
                    <mxGeometry x="130" y="450" width="60" height="30" as="geometry"/>
                </mxCell>
                <mxCell id="Z3AK5hToKeO39PUw8S9L-14" value="0.&quot;" style="text;html=1;strokeColor=none;fillColor=none;align=center;verticalAlign=middle;whiteSpace=wrap;rounded=0;" vertex="1" parent="1">
                    <mxGeometry x="130" y="480" width="60" height="30" as="geometry"/>
                </mxCell>
                <mxCell id="Z3AK5hToKeO39PUw8S9L-15" value="1.&quot;" style="text;html=1;strokeColor=none;fillColor=none;align=center;verticalAlign=middle;whiteSpace=wrap;rounded=0;" vertex="1" parent="1">
                    <mxGeometry x="130" y="510" width="60" height="30" as="geometry"/>
                </mxCell>
                <mxCell id="Z3AK5hToKeO39PUw8S9L-16" value="MAESTRO" style="swimlane;fontStyle=0;childLayout=stackLayout;horizontal=1;startSize=26;fillColor=none;horizontalStack=0;resizeParent=1;resizeParentMax=0;resizeLast=0;collapsible=1;marginBottom=0;" vertex="1" parent="1">
                    <mxGeometry x="530" y="145" width="140" height="104" as="geometry"/>
                </mxCell>
                <mxCell id="Z3AK5hToKeO39PUw8S9L-17" value="+ Nombre" style="text;strokeColor=none;fillColor=none;align=left;verticalAlign=top;spacingLeft=4;spacingRight=4;overflow=hidden;rotatable=0;points=[[0,0.5],[1,0.5]];portConstraint=eastwest;" vertex="1" parent="Z3AK5hToKeO39PUw8S9L-16">
                    <mxGeometry y="26" width="140" height="26" as="geometry"/>
                </mxCell>
                <mxCell id="Z3AK5hToKeO39PUw8S9L-18" value="+ Apellidos" style="text;strokeColor=none;fillColor=none;align=left;verticalAlign=top;spacingLeft=4;spacingRight=4;overflow=hidden;rotatable=0;points=[[0,0.5],[1,0.5]];portConstraint=eastwest;" vertex="1" parent="Z3AK5hToKeO39PUw8S9L-16">
                    <mxGeometry y="52" width="140" height="26" as="geometry"/>
                </mxCell>
                <mxCell id="Z3AK5hToKeO39PUw8S9L-19" value="+ IdCarrera" style="text;strokeColor=none;fillColor=none;align=left;verticalAlign=top;spacingLeft=4;spacingRight=4;overflow=hidden;rotatable=0;points=[[0,0.5],[1,0.5]];portConstraint=eastwest;" vertex="1" parent="Z3AK5hToKeO39PUw8S9L-16">
                    <mxGeometry y="78" width="140" height="26" as="geometry"/>
                </mxCell>
                <mxCell id="Z3AK5hToKeO39PUw8S9L-23" value="" style="edgeStyle=none;html=1;" edge="1" parent="1" source="Z3AK5hToKeO39PUw8S9L-20" target="Z3AK5hToKeO39PUw8S9L-22">
                    <mxGeometry relative="1" as="geometry"/>
                </mxCell>
                <mxCell id="Z3AK5hToKeO39PUw8S9L-20" value="MULTICIPLIDAD" style="text;html=1;strokeColor=#001DBC;fillColor=#0050ef;align=center;verticalAlign=middle;whiteSpace=wrap;rounded=0;fontColor=#ffffff;" vertex="1" parent="1">
                    <mxGeometry x="120" y="555" width="120" height="30" as="geometry"/>
                </mxCell>
                <mxCell id="Z3AK5hToKeO39PUw8S9L-22" value="RESTRICCION &amp;gt;=1" style="text;html=1;fillColor=none;align=center;verticalAlign=middle;whiteSpace=wrap;rounded=0;" vertex="1" parent="1">
                    <mxGeometry x="290" y="555" width="160" height="30" as="geometry"/>
                </mxCell>
                <mxCell id="Z3AK5hToKeO39PUw8S9L-25" value="ALUMNO" style="swimlane;fontStyle=0;childLayout=stackLayout;horizontal=1;startSize=26;fillColor=none;horizontalStack=0;resizeParent=1;resizeParentMax=0;resizeLast=0;collapsible=1;marginBottom=0;" vertex="1" parent="1">
                    <mxGeometry x="530" y="310" width="140" height="104" as="geometry"/>
                </mxCell>
                <mxCell id="Z3AK5hToKeO39PUw8S9L-26" value="+ Nombre" style="text;strokeColor=none;fillColor=none;align=left;verticalAlign=top;spacingLeft=4;spacingRight=4;overflow=hidden;rotatable=0;points=[[0,0.5],[1,0.5]];portConstraint=eastwest;" vertex="1" parent="Z3AK5hToKeO39PUw8S9L-25">
                    <mxGeometry y="26" width="140" height="26" as="geometry"/>
                </mxCell>
                <mxCell id="Z3AK5hToKeO39PUw8S9L-27" value="+ Apellidos" style="text;strokeColor=none;fillColor=none;align=left;verticalAlign=top;spacingLeft=4;spacingRight=4;overflow=hidden;rotatable=0;points=[[0,0.5],[1,0.5]];portConstraint=eastwest;" vertex="1" parent="Z3AK5hToKeO39PUw8S9L-25">
                    <mxGeometry y="52" width="140" height="26" as="geometry"/>
                </mxCell>
                <mxCell id="Z3AK5hToKeO39PUw8S9L-28" value="+ IdCarrera" style="text;strokeColor=none;fillColor=none;align=left;verticalAlign=top;spacingLeft=4;spacingRight=4;overflow=hidden;rotatable=0;points=[[0,0.5],[1,0.5]];portConstraint=eastwest;" vertex="1" parent="Z3AK5hToKeO39PUw8S9L-25">
                    <mxGeometry y="78" width="140" height="26" as="geometry"/>
                </mxCell>
                <mxCell id="Z3AK5hToKeO39PUw8S9L-30" value="{EDAD &amp;gt; 18}" style="text;html=1;fillColor=none;align=center;verticalAlign=middle;whiteSpace=wrap;rounded=0;" vertex="1" parent="1">
                    <mxGeometry x="390" y="160" width="130" height="30" as="geometry"/>
                </mxCell>
                <mxCell id="Z3AK5hToKeO39PUw8S9L-31" value="1" style="text;html=1;fillColor=none;align=center;verticalAlign=middle;whiteSpace=wrap;rounded=0;" vertex="1" parent="1">
                    <mxGeometry x="240" y="170" width="40" height="30" as="geometry"/>
                </mxCell>
                <mxCell id="Z3AK5hToKeO39PUw8S9L-32" value="1" style="text;html=1;fillColor=none;align=center;verticalAlign=middle;whiteSpace=wrap;rounded=0;" vertex="1" parent="1">
                    <mxGeometry x="240" y="249" width="40" height="30" as="geometry"/>
                </mxCell>
            </root>
        </mxGraphModel>
    </diagram>
    <diagram id="KeunwJKGtvKmCqU_ItyB" name="DIAGRAMA DE CLASES: AGREGACION">
        <mxGraphModel dx="685" dy="475" grid="1" gridSize="10" guides="1" tooltips="1" connect="1" arrows="1" fold="1" page="1" pageScale="1" pageWidth="827" pageHeight="1169" math="0" shadow="0">
            <root>
                <mxCell id="0"/>
                <mxCell id="1" parent="0"/>
                <mxCell id="QoGVfQ14IKdbRV_izOsS-1" value="&lt;p style=&quot;margin:0px;margin-top:4px;text-align:center;text-decoration:underline;&quot;&gt;&lt;b&gt;ECUELA&lt;/b&gt;&lt;/p&gt;&lt;hr&gt;&lt;p style=&quot;margin:0px;margin-left:8px;&quot;&gt;+Nombre&lt;/p&gt;&lt;p style=&quot;margin:0px;margin-left:8px;&quot;&gt;+Direccion&lt;/p&gt;&lt;p style=&quot;margin:0px;margin-left:8px;&quot;&gt;+Categoria&lt;/p&gt;" style="verticalAlign=top;align=left;overflow=fill;fontSize=12;fontFamily=Helvetica;html=1;" vertex="1" parent="1">
                    <mxGeometry x="270" y="60" width="160" height="90" as="geometry"/>
                </mxCell>
                <mxCell id="iz3-XpN583rGcDPvPbWc-5" style="edgeStyle=none;html=1;entryX=0;entryY=0.5;entryDx=0;entryDy=0;" edge="1" parent="1" source="iz3-XpN583rGcDPvPbWc-1" target="QoGVfQ14IKdbRV_izOsS-1">
                    <mxGeometry relative="1" as="geometry">
                        <Array as="points">
                            <mxPoint x="110" y="105"/>
                        </Array>
                    </mxGeometry>
                </mxCell>
                <mxCell id="iz3-XpN583rGcDPvPbWc-1" value="MAESTRO" style="swimlane;fontStyle=0;childLayout=stackLayout;horizontal=1;startSize=26;fillColor=none;horizontalStack=0;resizeParent=1;resizeParentMax=0;resizeLast=0;collapsible=1;marginBottom=0;" vertex="1" parent="1">
                    <mxGeometry x="40" y="180" width="140" height="104" as="geometry"/>
                </mxCell>
                <mxCell id="iz3-XpN583rGcDPvPbWc-2" value="+ Nombre" style="text;strokeColor=none;fillColor=none;align=left;verticalAlign=top;spacingLeft=4;spacingRight=4;overflow=hidden;rotatable=0;points=[[0,0.5],[1,0.5]];portConstraint=eastwest;" vertex="1" parent="iz3-XpN583rGcDPvPbWc-1">
                    <mxGeometry y="26" width="140" height="26" as="geometry"/>
                </mxCell>
                <mxCell id="iz3-XpN583rGcDPvPbWc-3" value="+ Apellidos" style="text;strokeColor=none;fillColor=none;align=left;verticalAlign=top;spacingLeft=4;spacingRight=4;overflow=hidden;rotatable=0;points=[[0,0.5],[1,0.5]];portConstraint=eastwest;" vertex="1" parent="iz3-XpN583rGcDPvPbWc-1">
                    <mxGeometry y="52" width="140" height="26" as="geometry"/>
                </mxCell>
                <mxCell id="iz3-XpN583rGcDPvPbWc-4" value="+ IdCarrera" style="text;strokeColor=none;fillColor=none;align=left;verticalAlign=top;spacingLeft=4;spacingRight=4;overflow=hidden;rotatable=0;points=[[0,0.5],[1,0.5]];portConstraint=eastwest;" vertex="1" parent="iz3-XpN583rGcDPvPbWc-1">
                    <mxGeometry y="78" width="140" height="26" as="geometry"/>
                </mxCell>
                <mxCell id="DQl3Ll9rFvJGP8TbtZpT-5" style="edgeStyle=none;html=1;entryX=1;entryY=0.5;entryDx=0;entryDy=0;" edge="1" parent="1" source="DQl3Ll9rFvJGP8TbtZpT-1" target="QoGVfQ14IKdbRV_izOsS-1">
                    <mxGeometry relative="1" as="geometry">
                        <Array as="points">
                            <mxPoint x="590" y="105"/>
                        </Array>
                    </mxGeometry>
                </mxCell>
                <mxCell id="DQl3Ll9rFvJGP8TbtZpT-1" value="ALUMNO" style="swimlane;fontStyle=0;childLayout=stackLayout;horizontal=1;startSize=26;fillColor=none;horizontalStack=0;resizeParent=1;resizeParentMax=0;resizeLast=0;collapsible=1;marginBottom=0;" vertex="1" parent="1">
                    <mxGeometry x="520" y="180" width="140" height="104" as="geometry"/>
                </mxCell>
                <mxCell id="DQl3Ll9rFvJGP8TbtZpT-2" value="+ Nombre" style="text;strokeColor=none;fillColor=none;align=left;verticalAlign=top;spacingLeft=4;spacingRight=4;overflow=hidden;rotatable=0;points=[[0,0.5],[1,0.5]];portConstraint=eastwest;" vertex="1" parent="DQl3Ll9rFvJGP8TbtZpT-1">
                    <mxGeometry y="26" width="140" height="26" as="geometry"/>
                </mxCell>
                <mxCell id="DQl3Ll9rFvJGP8TbtZpT-3" value="+ Apellidos" style="text;strokeColor=none;fillColor=none;align=left;verticalAlign=top;spacingLeft=4;spacingRight=4;overflow=hidden;rotatable=0;points=[[0,0.5],[1,0.5]];portConstraint=eastwest;" vertex="1" parent="DQl3Ll9rFvJGP8TbtZpT-1">
                    <mxGeometry y="52" width="140" height="26" as="geometry"/>
                </mxCell>
                <mxCell id="DQl3Ll9rFvJGP8TbtZpT-4" value="+ IdCarrera" style="text;strokeColor=none;fillColor=none;align=left;verticalAlign=top;spacingLeft=4;spacingRight=4;overflow=hidden;rotatable=0;points=[[0,0.5],[1,0.5]];portConstraint=eastwest;" vertex="1" parent="DQl3Ll9rFvJGP8TbtZpT-1">
                    <mxGeometry y="78" width="140" height="26" as="geometry"/>
                </mxCell>
                <mxCell id="X4v4B7uWU043SqmF0Wy8-5" value="AGREGACION" style="text;html=1;strokeColor=#C73500;fillColor=#fa6800;align=center;verticalAlign=middle;whiteSpace=wrap;rounded=0;fontColor=#000000;" vertex="1" parent="1">
                    <mxGeometry x="300" y="210" width="100" height="30" as="geometry"/>
                </mxCell>
            </root>
        </mxGraphModel>
    </diagram>
    <diagram id="PiG48lSJgKh5zjOhCSfg" name="REPASO">
        <mxGraphModel dx="826" dy="475" grid="1" gridSize="10" guides="1" tooltips="1" connect="1" arrows="1" fold="1" page="1" pageScale="1" pageWidth="827" pageHeight="1169" math="0" shadow="0">
            <root>
                <mxCell id="0"/>
                <mxCell id="1" parent="0"/>
                <mxCell id="up-WqhKUhNLGtUVjQ3lc-19" style="edgeStyle=none;html=1;entryX=1;entryY=0.5;entryDx=0;entryDy=0;" edge="1" parent="1" source="up-WqhKUhNLGtUVjQ3lc-1" target="up-WqhKUhNLGtUVjQ3lc-3">
                    <mxGeometry relative="1" as="geometry"/>
                </mxCell>
                <mxCell id="up-WqhKUhNLGtUVjQ3lc-20" style="edgeStyle=none;html=1;entryX=0;entryY=0.5;entryDx=0;entryDy=0;" edge="1" parent="1" source="up-WqhKUhNLGtUVjQ3lc-1" target="up-WqhKUhNLGtUVjQ3lc-2">
                    <mxGeometry relative="1" as="geometry"/>
                </mxCell>
                <mxCell id="up-WqhKUhNLGtUVjQ3lc-1" value="OBJETO&lt;br&gt;AUTOMOVIL" style="ellipse;whiteSpace=wrap;html=1;aspect=fixed;" vertex="1" parent="1">
                    <mxGeometry x="430" y="210" width="80" height="80" as="geometry"/>
                </mxCell>
                <mxCell id="up-WqhKUhNLGtUVjQ3lc-2" value="ABSTRACCION DE DATOS" style="rounded=0;whiteSpace=wrap;html=1;" vertex="1" parent="1">
                    <mxGeometry x="679" y="220" width="120" height="60" as="geometry"/>
                </mxCell>
                <mxCell id="up-WqhKUhNLGtUVjQ3lc-3" value="ABSTRACCION FUNCIONAL" style="rounded=0;whiteSpace=wrap;html=1;" vertex="1" parent="1">
                    <mxGeometry x="99" y="220" width="120" height="60" as="geometry"/>
                </mxCell>
                <mxCell id="up-WqhKUhNLGtUVjQ3lc-26" style="edgeStyle=none;html=1;" edge="1" parent="1" source="up-WqhKUhNLGtUVjQ3lc-4" target="up-WqhKUhNLGtUVjQ3lc-24">
                    <mxGeometry relative="1" as="geometry"/>
                </mxCell>
                <mxCell id="up-WqhKUhNLGtUVjQ3lc-4" value="AVANZA&lt;br&gt;DETENERSE&lt;br&gt;GIRAR A LA DERECHA&lt;br&gt;GIRAR A LA IZQUIERDA" style="text;html=1;align=center;verticalAlign=middle;resizable=0;points=[];autosize=1;strokeColor=none;fillColor=none;" vertex="1" parent="1">
                    <mxGeometry x="84" y="290" width="150" height="70" as="geometry"/>
                </mxCell>
                <mxCell id="up-WqhKUhNLGtUVjQ3lc-27" style="edgeStyle=none;html=1;entryX=1;entryY=0.5;entryDx=0;entryDy=0;entryPerimeter=0;" edge="1" parent="1" source="up-WqhKUhNLGtUVjQ3lc-5" target="up-WqhKUhNLGtUVjQ3lc-25">
                    <mxGeometry relative="1" as="geometry"/>
                </mxCell>
                <mxCell id="up-WqhKUhNLGtUVjQ3lc-5" value="COLOR&lt;br&gt;VELOCIDAD&lt;br&gt;TAMAÑO&lt;br&gt;MODELO" style="text;html=1;align=center;verticalAlign=middle;resizable=0;points=[];autosize=1;strokeColor=none;fillColor=none;" vertex="1" parent="1">
                    <mxGeometry x="694" y="290" width="90" height="70" as="geometry"/>
                </mxCell>
                <mxCell id="up-WqhKUhNLGtUVjQ3lc-6" value="CLASE" style="text;html=1;align=center;verticalAlign=middle;resizable=0;points=[];autosize=1;strokeColor=none;fillColor=none;" vertex="1" parent="1">
                    <mxGeometry x="129" y="375" width="60" height="30" as="geometry"/>
                </mxCell>
                <mxCell id="up-WqhKUhNLGtUVjQ3lc-7" value="OBJETO" style="text;html=1;align=center;verticalAlign=middle;resizable=0;points=[];autosize=1;strokeColor=none;fillColor=none;" vertex="1" parent="1">
                    <mxGeometry x="704" y="375" width="70" height="30" as="geometry"/>
                </mxCell>
                <mxCell id="up-WqhKUhNLGtUVjQ3lc-8" value="Public class Automovil{&lt;br&gt;private String color;&lt;br&gt;private int velocidad;&lt;br&gt;private float tamaño;&lt;br&gt;private float modelo;" style="text;html=1;align=center;verticalAlign=middle;resizable=0;points=[];autosize=1;strokeColor=none;fillColor=none;" vertex="1" parent="1">
                    <mxGeometry x="84" y="410" width="150" height="90" as="geometry"/>
                </mxCell>
                <mxCell id="up-WqhKUhNLGtUVjQ3lc-13" value="Estado" style="text;html=1;align=center;verticalAlign=middle;resizable=0;points=[];autosize=1;strokeColor=none;fillColor=none;" vertex="1" parent="1">
                    <mxGeometry x="270" y="440" width="60" height="30" as="geometry"/>
                </mxCell>
                <mxCell id="up-WqhKUhNLGtUVjQ3lc-14" value="" style="shape=curlyBracket;whiteSpace=wrap;html=1;rounded=1;flipH=1;labelPosition=right;verticalLabelPosition=middle;align=left;verticalAlign=middle;" vertex="1" parent="1">
                    <mxGeometry x="250" y="425" width="20" height="60" as="geometry"/>
                </mxCell>
                <mxCell id="up-WqhKUhNLGtUVjQ3lc-15" value="public Automovil( string color, int velocidad, float tamaño);" style="text;html=1;align=center;verticalAlign=middle;resizable=0;points=[];autosize=1;strokeColor=none;fillColor=none;" vertex="1" parent="1">
                    <mxGeometry x="84" y="505" width="330" height="30" as="geometry"/>
                </mxCell>
                <mxCell id="up-WqhKUhNLGtUVjQ3lc-16" value="Constructor" style="text;html=1;align=center;verticalAlign=middle;resizable=0;points=[];autosize=1;strokeColor=none;fillColor=none;" vertex="1" parent="1">
                    <mxGeometry x="420" y="505" width="90" height="30" as="geometry"/>
                </mxCell>
                <mxCell id="up-WqhKUhNLGtUVjQ3lc-17" value="" style="shape=curlyBracket;whiteSpace=wrap;html=1;rounded=1;flipH=1;labelPosition=right;verticalLabelPosition=middle;align=left;verticalAlign=middle;" vertex="1" parent="1">
                    <mxGeometry x="410" y="490" width="20" height="60" as="geometry"/>
                </mxCell>
                <mxCell id="up-WqhKUhNLGtUVjQ3lc-18" value="public void avanzar {}{}&lt;br&gt;public void detenerse {}{}&lt;br&gt;public void girar a la derecha {}{}&lt;br&gt;public void girar a la izquierda {}{}" style="text;html=1;align=center;verticalAlign=middle;resizable=0;points=[];autosize=1;strokeColor=none;fillColor=none;" vertex="1" parent="1">
                    <mxGeometry x="59" y="550" width="200" height="70" as="geometry"/>
                </mxCell>
                <mxCell id="up-WqhKUhNLGtUVjQ3lc-21" value="Comportamiento" style="text;html=1;align=center;verticalAlign=middle;resizable=0;points=[];autosize=1;strokeColor=none;fillColor=none;" vertex="1" parent="1">
                    <mxGeometry x="270" y="570" width="120" height="30" as="geometry"/>
                </mxCell>
                <mxCell id="up-WqhKUhNLGtUVjQ3lc-22" value="" style="shape=curlyBracket;whiteSpace=wrap;html=1;rounded=1;flipH=1;labelPosition=right;verticalLabelPosition=middle;align=left;verticalAlign=middle;" vertex="1" parent="1">
                    <mxGeometry x="259" y="550" width="20" height="70" as="geometry"/>
                </mxCell>
                <mxCell id="up-WqhKUhNLGtUVjQ3lc-29" value="" style="edgeStyle=none;html=1;" edge="1" parent="1" target="up-WqhKUhNLGtUVjQ3lc-28">
                    <mxGeometry relative="1" as="geometry">
                        <mxPoint x="739" y="660" as="sourcePoint"/>
                    </mxGeometry>
                </mxCell>
                <mxCell id="up-WqhKUhNLGtUVjQ3lc-24" value="Funciones" style="text;html=1;align=center;verticalAlign=middle;resizable=0;points=[];autosize=1;strokeColor=none;fillColor=none;" vertex="1" parent="1">
                    <mxGeometry x="260" y="315" width="80" height="30" as="geometry"/>
                </mxCell>
                <mxCell id="up-WqhKUhNLGtUVjQ3lc-25" value="Atributos" style="text;html=1;align=center;verticalAlign=middle;resizable=0;points=[];autosize=1;strokeColor=none;fillColor=none;" vertex="1" parent="1">
                    <mxGeometry x="590" y="310" width="70" height="30" as="geometry"/>
                </mxCell>
                <mxCell id="up-WqhKUhNLGtUVjQ3lc-28" value="This" style="text;html=1;align=center;verticalAlign=middle;resizable=0;points=[];autosize=1;strokeColor=none;fillColor=none;" vertex="1" parent="1">
                    <mxGeometry x="714" y="715" width="50" height="30" as="geometry"/>
                </mxCell>
                <mxCell id="up-WqhKUhNLGtUVjQ3lc-31" value="Privados" style="text;html=1;align=center;verticalAlign=middle;resizable=0;points=[];autosize=1;strokeColor=none;fillColor=none;" vertex="1" parent="1">
                    <mxGeometry x="757" y="775" width="70" height="30" as="geometry"/>
                </mxCell>
                <mxCell id="up-WqhKUhNLGtUVjQ3lc-33" value="" style="shape=requiredInterface;html=1;verticalLabelPosition=bottom;sketch=0;rotation=-90;" vertex="1" parent="1">
                    <mxGeometry x="728.5" y="707.5" width="16" height="110" as="geometry"/>
                </mxCell>
                <mxCell id="up-WqhKUhNLGtUVjQ3lc-34" value="&lt;p style=&quot;margin:0px;margin-top:4px;text-align:center;&quot;&gt;&lt;i&gt;&lt;b&gt;Automovil&lt;/b&gt;&lt;/i&gt;&lt;/p&gt;&lt;p style=&quot;margin:0px;margin-top:4px;text-align:center;&quot;&gt;&lt;i&gt;&lt;br&gt;&lt;/i&gt;&lt;/p&gt;&lt;p style=&quot;margin:0px;margin-left:4px;&quot;&gt;+ Color&lt;br&gt;+ Velocidad&lt;/p&gt;&lt;p style=&quot;margin:0px;margin-left:4px;&quot;&gt;+ Tamaño&lt;/p&gt;&lt;p style=&quot;margin:0px;margin-left:4px;&quot;&gt;+ Modelo&lt;/p&gt;&lt;hr size=&quot;1&quot;&gt;&lt;p style=&quot;margin:0px;margin-left:4px;&quot;&gt;+ Avanzar&lt;br&gt;+ Detenerse&lt;/p&gt;&lt;p style=&quot;margin:0px;margin-left:4px;&quot;&gt;+ Girar a la derecha&lt;/p&gt;&lt;p style=&quot;margin:0px;margin-left:4px;&quot;&gt;+ Girar a la izquierda&lt;/p&gt;" style="verticalAlign=top;align=left;overflow=fill;fontSize=12;fontFamily=Helvetica;html=1;" vertex="1" parent="1">
                    <mxGeometry x="375" y="672.5" width="190" height="175" as="geometry"/>
                </mxCell>
                <mxCell id="up-WqhKUhNLGtUVjQ3lc-35" value="Public static void&amp;nbsp; (string [ ] args){&lt;br&gt;automovil Miauto = new Automovil(100,km);&lt;br&gt;automovil Tuauto = new Automovil(50,km);&lt;br&gt;automovil Josue = new Automovil(200,km);&lt;br&gt;&lt;br&gt;}" style="text;html=1;align=center;verticalAlign=middle;resizable=0;points=[];autosize=1;strokeColor=none;fillColor=none;" vertex="1" parent="1">
                    <mxGeometry x="609" y="420" width="260" height="100" as="geometry"/>
                </mxCell>
                <mxCell id="up-WqhKUhNLGtUVjQ3lc-36" style="edgeStyle=none;html=1;entryX=1;entryY=0.5;entryDx=0;entryDy=0;entryPerimeter=0;" edge="1" target="up-WqhKUhNLGtUVjQ3lc-40" parent="1">
                    <mxGeometry relative="1" as="geometry">
                        <mxPoint x="694" y="325" as="sourcePoint"/>
                    </mxGeometry>
                </mxCell>
                <mxCell id="up-WqhKUhNLGtUVjQ3lc-37" value="OBJETO" style="text;html=1;align=center;verticalAlign=middle;resizable=0;points=[];autosize=1;strokeColor=none;fillColor=none;" vertex="1" parent="1">
                    <mxGeometry x="704" y="375" width="70" height="30" as="geometry"/>
                </mxCell>
                <mxCell id="up-WqhKUhNLGtUVjQ3lc-38" value="" style="edgeStyle=none;html=1;" edge="1" target="up-WqhKUhNLGtUVjQ3lc-41" parent="1">
                    <mxGeometry relative="1" as="geometry">
                        <mxPoint x="739" y="660" as="sourcePoint"/>
                        <Array as="points">
                            <mxPoint x="740" y="670"/>
                        </Array>
                    </mxGeometry>
                </mxCell>
                <mxCell id="up-WqhKUhNLGtUVjQ3lc-40" value="Atributos" style="text;html=1;align=center;verticalAlign=middle;resizable=0;points=[];autosize=1;strokeColor=none;fillColor=none;" vertex="1" parent="1">
                    <mxGeometry x="590" y="310" width="70" height="30" as="geometry"/>
                </mxCell>
                <mxCell id="up-WqhKUhNLGtUVjQ3lc-41" value="This" style="text;html=1;align=center;verticalAlign=middle;resizable=0;points=[];autosize=1;strokeColor=none;fillColor=none;" vertex="1" parent="1">
                    <mxGeometry x="714" y="715" width="50" height="30" as="geometry"/>
                </mxCell>
                <mxCell id="up-WqhKUhNLGtUVjQ3lc-42" value="Publicos" style="text;html=1;align=center;verticalAlign=middle;resizable=0;points=[];autosize=1;strokeColor=none;fillColor=none;" vertex="1" parent="1">
                    <mxGeometry x="644" y="775" width="70" height="30" as="geometry"/>
                </mxCell>
                <mxCell id="up-WqhKUhNLGtUVjQ3lc-43" value="Privados" style="text;html=1;align=center;verticalAlign=middle;resizable=0;points=[];autosize=1;strokeColor=none;fillColor=none;" vertex="1" parent="1">
                    <mxGeometry x="757" y="775" width="70" height="30" as="geometry"/>
                </mxCell>
                <mxCell id="up-WqhKUhNLGtUVjQ3lc-44" value="" style="shape=requiredInterface;html=1;verticalLabelPosition=bottom;sketch=0;rotation=-90;" vertex="1" parent="1">
                    <mxGeometry x="728.5" y="707.5" width="16" height="110" as="geometry"/>
                </mxCell>
                <mxCell id="up-WqhKUhNLGtUVjQ3lc-47" value="Public static void&amp;nbsp; (string [ ] args){&lt;br&gt;automovil Miauto = new Automovil(rojo,red);&lt;br&gt;automovil Tuauto = new Automovil(azul,blue);&lt;br&gt;automovil Josue = new Automovil(negro,black);&lt;br&gt;&lt;br&gt;}" style="text;html=1;align=center;verticalAlign=middle;resizable=0;points=[];autosize=1;strokeColor=none;fillColor=none;" vertex="1" parent="1">
                    <mxGeometry x="599" y="540" width="280" height="100" as="geometry"/>
                </mxCell>
            </root>
        </mxGraphModel>
    </diagram>
    <diagram id="zWwgzwQG2VxGjcERMPYJ" name="Facturas">
        <mxGraphModel dx="1066" dy="475" grid="1" gridSize="10" guides="1" tooltips="1" connect="1" arrows="1" fold="1" page="1" pageScale="1" pageWidth="827" pageHeight="1169" math="0" shadow="0">
            <root>
                <mxCell id="0"/>
                <mxCell id="1" parent="0"/>
                <mxCell id="FZ1nhGSIId_SzEjQgXgX-2" style="edgeStyle=none;html=1;entryX=0;entryY=0.5;entryDx=0;entryDy=0;" edge="1" parent="1" source="4W1XNvQz90gfGHKX8uX4-1" target="FZ1nhGSIId_SzEjQgXgX-1">
                    <mxGeometry relative="1" as="geometry"/>
                </mxCell>
                <mxCell id="4W1XNvQz90gfGHKX8uX4-1" value="&lt;p style=&quot;margin:0px;margin-top:4px;text-align:center;&quot;&gt;&lt;i&gt;Producto&lt;/i&gt;&lt;/p&gt;&lt;p style=&quot;margin:0px;margin-top:4px;text-align:center;&quot;&gt;&lt;i&gt;&lt;br&gt;&lt;/i&gt;&lt;/p&gt;&lt;p style=&quot;margin:0px;margin-left:4px;&quot;&gt;+ Nombre&lt;br&gt;+ Precio&lt;/p&gt;&lt;hr size=&quot;1&quot;&gt;&lt;p style=&quot;margin:0px;margin-left:4px;&quot;&gt;+ Agregar Producto&lt;br&gt;+ Calcular Total&lt;/p&gt;" style="verticalAlign=top;align=left;overflow=fill;fontSize=12;fontFamily=Helvetica;html=1;" parent="1" vertex="1">
                    <mxGeometry x="110" y="160" width="190" height="140" as="geometry"/>
                </mxCell>
                <mxCell id="FZ1nhGSIId_SzEjQgXgX-1" value="&lt;p style=&quot;margin:0px;margin-top:4px;text-align:center;&quot;&gt;&lt;i&gt;Factura&lt;/i&gt;&lt;/p&gt;&lt;p style=&quot;margin:0px;margin-top:4px;text-align:center;&quot;&gt;&lt;i&gt;&lt;br&gt;&lt;/i&gt;&lt;/p&gt;&lt;p style=&quot;margin:0px;margin-left:4px;&quot;&gt;+ Productos&lt;/p&gt;&lt;hr size=&quot;1&quot;&gt;&lt;p style=&quot;margin:0px;margin-left:4px;&quot;&gt;+ Agregar Producto&lt;br&gt;+ Calcular Total&lt;/p&gt;" style="verticalAlign=top;align=left;overflow=fill;fontSize=12;fontFamily=Helvetica;html=1;" vertex="1" parent="1">
                    <mxGeometry x="470" y="160" width="190" height="140" as="geometry"/>
                </mxCell>
            </root>
        </mxGraphModel>
    </diagram>
    <diagram id="E7LGz1suz5h0RGQMgwu9" name="Estacionamiento">
        <mxGraphModel dx="402" dy="491" grid="1" gridSize="10" guides="1" tooltips="1" connect="1" arrows="1" fold="1" page="1" pageScale="1" pageWidth="827" pageHeight="1169" math="0" shadow="0">
            <root>
                <mxCell id="0"/>
                <mxCell id="1" parent="0"/>
                <mxCell id="0AJCLGHwwrRuE15e-iYF-1" value="&lt;p style=&quot;margin:0px;margin-top:4px;text-align:center;&quot;&gt;&lt;b&gt;Estacionamiento&lt;/b&gt;&lt;/p&gt;&lt;hr size=&quot;1&quot;&gt;&lt;p style=&quot;margin:0px;margin-left:4px;&quot;&gt;+ TarifaHora&lt;br&gt;+ TotalHora&lt;/p&gt;&lt;p style=&quot;margin:0px;margin-left:4px;&quot;&gt;+ Pagado&lt;/p&gt;&lt;hr size=&quot;1&quot;&gt;&lt;p style=&quot;margin:0px;margin-left:4px;&quot;&gt;+ CalcularPago()&lt;br&gt;+ GenerarTicket()&lt;/p&gt;" style="verticalAlign=top;align=left;overflow=fill;fontSize=12;fontFamily=Helvetica;html=1;" vertex="1" parent="1">
                    <mxGeometry x="50" y="50" width="190" height="140" as="geometry"/>
                </mxCell>
            </root>
        </mxGraphModel>
    </diagram>
</mxfile>